<svg xmlns="http://www.w3.org/2000/svg" width="18" height="13.64" viewBox="0 0 18 13.64">
  <g id="eye_8_" data-name="eye (8)" transform="translate(4 -1)">
    <g id="Componente_84_1" data-name="Componente 84 – 1" transform="translate(-4 1)">
      <g id="Grupo_2810" data-name="Grupo 2810" transform="translate(5.028 2.813)">
        <path id="Caminho_3437" data-name="Caminho 3437" d="M147.022,142a4.008,4.008,0,1,0,4.008,4.008A4.012,4.012,0,0,0,147.022,142Zm0,6.609a2.6,2.6,0,1,1,2.6-2.6A2.6,2.6,0,0,1,147.022,148.611Z" transform="translate(-143.014 -142.002)" fill="#767676"/>
      </g>
      <g id="Grupo_2813" data-name="Grupo 2813">
        <g id="Grupo_2812" data-name="Grupo 2812">
          <path id="Caminho_3438" data-name="Caminho 3438" d="M17.544,67.288A13.591,13.591,0,0,0,14.4,63.962,8.945,8.945,0,0,0,9.016,62a8.992,8.992,0,0,0-5.392,1.953A13.688,13.688,0,0,0,.463,67.279a2.808,2.808,0,0,0,0,3.089A13.688,13.688,0,0,0,3.623,73.69a8.992,8.992,0,0,0,5.392,1.953,9.751,9.751,0,0,0,6.5-2.9.7.7,0,1,0-.962-1.025,8.385,8.385,0,0,1-5.54,2.515c-3.414,0-6.244-2.918-7.378-4.642a1.4,1.4,0,0,1,0-1.544c1.134-1.724,3.964-4.642,7.378-4.642s6.227,2.921,7.351,4.647a1.407,1.407,0,0,1,0,1.535.7.7,0,1,0,1.178.767A2.814,2.814,0,0,0,17.544,67.288Z" transform="translate(0 -62.003)" fill="#767676"/>
        </g>
      </g>
    </g>
  </g>
</svg>
