<svg xmlns="http://www.w3.org/2000/svg" width="16" height="16" viewBox="0 0 16 16">
  <path id="filter" d="M15.375,0H.625a.625.625,0,1,0,0,1.25H1.25V3.115a2.5,2.5,0,0,0,.606,1.632l3.965,4.6a1.25,1.25,0,0,1,.3.816v3.479a.625.625,0,0,0,.269.514l2.5,1.731a.625.625,0,0,0,.981-.514v-5.21a1.251,1.251,0,0,1,.3-.816l.865-1a.625.625,0,0,0-.947-.816l-.865,1a2.5,2.5,0,0,0-.606,1.632v4.017l-1.25-.865V10.164a2.5,2.5,0,0,0-.606-1.632L3.212,4.4h9.576l-.78.9a.625.625,0,0,0,.947.816l1.188-1.379a2.5,2.5,0,0,0,.606-1.632V1.249h.625a.625.625,0,1,0,0-1.25ZM13.5,3.115c0,.013,0,.027,0,.04H2.5c0-.013,0-.027,0-.04V1.249h11Zm0,0" transform="translate(0 0.001)" fill="#a9b2b8"/>
</svg>
