<svg id="Componente_117_3" data-name="Componente 117 – 3" xmlns="http://www.w3.org/2000/svg" width="12.944" height="15.001" viewBox="0 0 12.944 15.001">
  <g id="Grupo_18692" data-name="Grupo 18692" transform="translate(0 0)">
    <g id="Grupo_1717" data-name="Grupo 1717" transform="translate(0 0)">
      <g id="Grupo_1" data-name="Grupo 1">
        <path id="Caminho_76" data-name="Caminho 76" d="M142.515,2017.016l6.727.029a2.678,2.678,0,0,1,2.269,2.861c-.2,1.568-2.169,2.09-2.169,2.09l1.206,2.088s3.615-.963,3.454-4.578a5.012,5.012,0,0,0-4.659-4.924c-1.607,0-6.869-.01-6.869-.01Z" transform="translate(-141.063 -2014.55)" fill="#152e3e"/>
        <path id="Caminho_81" data-name="Caminho 81" d="M194.672,2172.689s-4.295-7.258-4.413-7.482h-3.8v2.486h2.346l2.927,5Z" transform="translate(-182.862 -2157.689)" fill="#152e3e"/>
        <path id="Caminho_77" data-name="Caminho 77" d="M127.031,2019.105a4.981,4.981,0,0,0-4.978-4.975h-7.949l1.457,2.5,6.492.006A5.78,5.78,0,0,1,127.031,2019.105Z" transform="translate(-114.105 -2014.131)" fill="#e2b874"/>
      </g>
    </g>
  </g>
</svg>
