<svg id="trash_5_" data-name="trash (5)" xmlns="http://www.w3.org/2000/svg" width="16.594" height="18" viewBox="0 0 16.594 18">
  <g id="Grupo_2431" data-name="Grupo 2431">
    <g id="Grupo_2430" data-name="Grupo 2430">
      <path id="Caminho_3233" data-name="Caminho 3233" d="M35.891,2.918H31.637V2.109A2.112,2.112,0,0,0,29.527,0H27.066a2.112,2.112,0,0,0-2.109,2.109v.809H20.7a.7.7,0,1,0,0,1.406h.728l.857,11.109v.01A2.812,2.812,0,0,0,25.09,18H31.5a2.789,2.789,0,0,0,2.8-2.538.7.7,0,1,0-1.4-.128,1.39,1.39,0,0,1-1.4,1.259H25.09a1.4,1.4,0,0,1-1.4-1.274l-.848-11h10.91l-.6,7.786a.7.7,0,0,0,.647.755l.055,0a.7.7,0,0,0,.7-.649l.609-7.894h.728a.7.7,0,0,0,0-1.406Zm-5.66,0H26.363V2.109a.7.7,0,0,1,.7-.7h2.461a.7.7,0,0,1,.7.7Z" transform="translate(-20)" fill="#d83636"/>
      <path id="Caminho_3234" data-name="Caminho 3234" d="M146.672,163a.7.7,0,0,0-.672.733l.352,8.048a.7.7,0,0,0,.7.672h.031a.7.7,0,0,0,.672-.733l-.352-8.048A.7.7,0,0,0,146.672,163Z" transform="translate(-141.57 -157.268)" fill="#d83636"/>
      <path id="Caminho_3235" data-name="Caminho 3235" d="M316.352,163.672,316,171.721a.7.7,0,0,0,.672.733h.031a.7.7,0,0,0,.7-.672l.352-8.048a.7.7,0,0,0-1.4-.061Z" transform="translate(-305.593 -157.269)" fill="#d83636"/>
      <path id="Caminho_3236" data-name="Caminho 3236" d="M236,163.7v8.048a.7.7,0,1,0,1.406,0V163.7a.7.7,0,0,0-1.406,0Z" transform="translate(-228.406 -157.27)" fill="#d83636"/>
    </g>
  </g>
</svg>
